<svg class="img-fluid" id="outputsvg" xmlns="http://www.w3.org/2000/svg" style="transform: none; transform-origin: 50% 50%; cursor: move; max-height: none; transition: none 0s ease 0s;" width="450" height="450" viewBox="0 0 4500 4500"><g id="l350bXGSK0EAbGdHWD5rQmJ" fill="rgb(255,255,255)" style="transform: none; --darkreader-inline-fill:#e8e6e3;" data-darkreader-inline-fill=""><g style="transform: none;"><path id="p11lKxm6nQ" d="M0 3450 c0 -1024 0 -1050 19 -1050 24 0 31 19 31 82 0 63 41 269 76 380 125 401 307 696 605 983 224 216 449 359 744 473 189 73 432 132 547 132 55 0 58 1 58 25 l0 25 -1040 0 -1040 0 0 -1050z"></path><path id="p1GMMChb7x" d="M2410 4491 c0 -32 14 -41 65 -41 130 0 396 -68 620 -160 331 -134 668 -393 894 -685 34 -44 65 -84 69 -90 68 -89 176 -284 245 -445 58 -135 132 -420 144 -550 6 -71 18 -100 42 -100 8 0 11 307 11 1040 l0 1040 -1045 0 c-628 0 -1045 -4 -1045 -9z"></path><path id="pC1wKacil" d="M1652 3826 c-172 -175 -175 -182 -127 -276 21 -42 25 -63 25 -142 0 -99 19 -206 45 -262 9 -18 37 -58 62 -87 56 -65 93 -141 93 -190 0 -58 26 -82 96 -87 77 -5 95 12 103 102 l6 63 122 -138 c132 -147 147 -157 223 -144 40 7 80 43 80 71 0 10 16 14 59 14 52 0 62 3 80 26 23 29 29 101 11 134 -9 16 -5 22 19 34 35 18 41 33 41 98 0 34 -6 59 -20 79 l-21 28 29 15 c36 18 42 33 42 96 0 56 3 52 -163 235 -133 146 -231 235 -362 328 -55 39 -125 90 -157 114 -44 34 -65 43 -96 43 -37 0 -46 -7 -190 -154z"></path><path id="p10aqluU4m" d="M3584 2999 c-18 -30 -90 -49 -186 -49 -161 0 -254 -30 -345 -110 -57 -50 -115 -78 -178 -86 -74 -10 -85 -24 -85 -105 0 -80 6 -86 100 -97 l59 -7 -62 -52 c-34 -29 -97 -86 -140 -125 -74 -69 -78 -76 -83 -123 -6 -61 9 -95 53 -115 31 -14 33 -18 33 -71 0 -43 5 -60 20 -74 24 -22 109 -32 139 -16 14 8 21 8 21 1 0 -6 11 -22 25 -35 32 -33 122 -36 165 -5 l27 19 11 -25 c19 -39 97 -57 154 -35 32 13 310 267 382 349 32 37 97 121 143 187 47 66 99 136 114 156 21 26 29 48 29 76 0 36 -8 47 -158 196 -146 146 -160 157 -194 157 -20 0 -40 -5 -44 -11z"></path><path id="p8biGIVQY" d="M1099 2538 c-185 -161 -329 -316 -445 -478 -128 -179 -134 -189 -134 -228 0 -25 25 -54 160 -186 143 -140 163 -156 194 -156 19 0 36 3 38 8 2 4 19 16 38 27 27 15 63 21 165 26 168 9 237 30 326 102 80 64 129 89 192 95 61 6 87 36 87 99 0 24 -5 53 -10 63 -12 22 -67 40 -123 40 l-38 0 140 125 c76 69 142 136 145 148 18 66 0 129 -42 151 -26 14 -30 22 -34 72 -6 75 -28 94 -109 94 -32 0 -61 -5 -65 -11 -4 -7 -12 1 -21 19 -27 57 -114 70 -177 27 -26 -17 -36 -20 -36 -10 0 28 -50 55 -105 55 -51 0 -54 -2 -146 -82z"></path><path id="pIu5kV41f" d="M0 1046 l0 -1046 1030 0 1030 0 0 24 c0 21 -5 24 -68 29 -243 21 -592 138 -841 284 -229 133 -462 335 -623 538 -43 55 -83 105 -88 111 -35 45 -114 180 -171 294 -112 224 -202 522 -217 720 -6 78 -9 85 -29 88 l-23 3 0 -1045z"></path><path id="p8doAxJrK" d="M4464 2077 c-6 -7 -13 -46 -16 -87 -14 -175 -98 -468 -191 -659 -122 -255 -252 -438 -451 -637 -270 -270 -539 -436 -901 -555 -136 -45 -350 -89 -432 -89 -39 0 -43 -2 -43 -25 l0 -25 1035 0 1035 0 0 1045 c0 1073 0 1073 -36 1032z"></path><path id="pQiCu9m5N" d="M2180 1833 c-26 -10 -60 -46 -60 -65 0 -15 -9 -18 -58 -18 -46 0 -63 -4 -77 -20 -22 -24 -32 -109 -16 -139 10 -18 9 -22 -6 -28 -42 -15 -53 -34 -53 -98 0 -47 5 -69 20 -87 l19 -25 -25 -11 c-30 -14 -44 -49 -44 -107 0 -38 7 -52 52 -107 112 -135 361 -374 468 -448 58 -40 131 -93 163 -117 44 -33 66 -43 95 -43 36 0 47 9 190 154 172 174 174 177 127 278 -21 45 -25 68 -25 153 0 159 -27 242 -110 341 -53 62 -90 143 -90 198 0 50 -25 66 -103 66 -78 0 -84 -7 -95 -99 l-7 -58 -119 134 c-66 74 -130 139 -143 144 -26 10 -79 11 -103 2z"></path></g></g><g id="l5rY1bQtrVwYBbhijSfCq84" fill="rgb(255,207,91)" style="transform: none; --darkreader-inline-fill:#ffce59;" data-darkreader-inline-fill=""><g style="transform: none;"><path id="p7we54e1M" d="M2973 927 c-17 -17 -20 -26 -12 -40 14 -24 -4 -46 -165 -207 -120 -119 -138 -133 -155 -123 -16 10 -24 6 -55 -26 -63 -64 -59 -72 132 -269 l167 -172 85 31 c47 16 96 34 110 38 94 30 386 190 465 254 l30 25 -249 256 c-247 255 -249 256 -290 255 -28 0 -48 -7 -63 -22z"></path></g></g><g id="l3bq48oZ2uJeTGJQpHlM2PH" fill="rgb(84,191,235)" style="transform: none; --darkreader-inline-fill:#5ac1ec;" data-darkreader-inline-fill=""><g style="transform: none;"><path id="pOxGxuJen" d="M3803 3328 c-245 -237 -251 -244 -252 -284 -1 -31 5 -46 24 -64 21 -19 27 -21 40 -10 14 12 37 -7 178 -148 132 -132 160 -165 152 -178 -8 -13 -3 -24 22 -50 25 -27 39 -34 69 -34 35 0 48 10 201 162 90 89 163 168 163 174 0 14 -46 155 -67 204 -84 197 -242 470 -273 470 -3 0 -119 -109 -257 -242z"></path></g></g><g id="l1sxCfKVUN2HvuhAruTO6Bt" fill="rgb(76,219,195)" style="transform: none; --darkreader-inline-fill:#57ddc7;" data-darkreader-inline-fill=""><g style="transform: none;"><path id="phy8ymjT8" d="M263 1782 l-172 -167 43 -120 c64 -181 216 -472 287 -548 l19 -21 93 90 c50 49 165 161 255 249 l163 160 -3 45 c-2 37 -8 47 -31 60 -23 13 -29 13 -36 1 -7 -10 -49 26 -170 144 -142 140 -159 160 -150 177 9 17 5 26 -27 59 -65 67 -73 63 -271 -129z"></path></g></g><g id="l1UzemxUa9TmHpzErNRNhaE" fill="rgb(255,131,103)" style="transform: none; --darkreader-inline-fill:#ff7f62;" data-darkreader-inline-fill=""><g style="transform: none;"><path id="pwkAKVflq" d="M2055 4490 c-3 -5 -32 -10 -63 -10 -115 0 -438 -78 -449 -108 -4 -9 52 -72 152 -172 l158 -158 -22 -27 c-11 -15 -21 -41 -21 -56 0 -26 2 -28 19 -17 16 10 27 5 77 -34 33 -24 104 -76 159 -115 55 -39 132 -99 172 -134 81 -72 330 -343 345 -376 24 -50 -32 -113 -87 -99 -13 3 -60 49 -105 101 -46 52 -87 95 -92 95 -6 0 14 -27 44 -61 227 -259 234 -270 208 -318 -14 -28 -64 -45 -89 -32 -11 7 -73 71 -137 144 -64 72 -121 134 -127 136 -14 5 -4 -8 88 -113 164 -186 215 -249 221 -273 14 -55 -66 -105 -114 -71 -10 7 -81 85 -156 173 -160 185 -176 203 -176 190 0 -9 42 -59 228 -273 69 -81 78 -113 40 -157 -29 -34 -79 -37 -111 -7 -12 12 -85 93 -162 181 -131 149 -169 186 -149 144 5 -10 8 -57 9 -104 0 -73 -3 -90 -20 -109 -41 -45 -115 -1 -115 69 0 49 -37 125 -93 190 -25 29 -53 69 -62 87 -26 56 -45 163 -45 262 0 79 -4 100 -25 143 l-26 50 27 34 26 35 -28 0 c-18 0 -40 -12 -62 -32 l-34 -33 -233 240 -232 239 -29 -19 c-116 -75 -328 -272 -450 -418 -262 -311 -449 -748 -496 -1152 -15 -133 -21 -456 -8 -469 5 -5 10 -34 10 -63 0 -84 71 -413 89 -413 3 0 85 77 181 169 l175 169 44 -41 c26 -25 45 -37 48 -30 2 6 57 85 121 174 82 115 151 199 236 284 166 166 304 285 331 285 38 0 75 -37 75 -75 0 -30 -10 -43 -100 -121 -56 -48 -98 -89 -95 -92 3 -3 15 4 28 15 141 127 278 242 295 247 40 13 91 -29 92 -74 0 -26 -49 -79 -145 -160 -78 -65 -146 -130 -137 -130 5 0 89 70 187 155 186 162 205 173 252 140 51 -36 36 -90 -46 -160 -207 -177 -310 -269 -306 -273 3 -3 13 2 22 10 10 8 54 46 99 84 44 38 110 95 145 126 36 31 77 62 93 67 54 21 115 -36 100 -94 -3 -14 -81 -91 -185 -186 -99 -88 -179 -162 -177 -164 2 -1 37 2 78 7 94 12 150 -3 164 -45 16 -44 -18 -80 -81 -88 -66 -8 -113 -32 -192 -96 -89 -71 -157 -93 -326 -102 -98 -6 -139 -12 -167 -27 -42 -21 -48 -43 -18 -62 11 -7 20 -19 20 -26 0 -8 -112 -124 -250 -257 -137 -134 -250 -249 -250 -256 0 -24 158 -208 276 -323 247 -239 535 -412 864 -518 139 -45 300 -80 403 -89 37 -3 67 -10 67 -14 0 -5 97 -9 215 -9 137 0 215 4 215 10 0 6 19 10 43 10 51 0 195 24 299 51 141 35 146 13 -49 215 l-173 178 39 41 40 40 -62 46 c-34 25 -107 78 -163 117 -56 39 -139 106 -184 149 -116 108 -330 343 -336 368 -13 52 38 104 89 92 13 -4 61 -49 107 -102 46 -52 87 -95 92 -95 11 0 -4 18 -154 189 -91 102 -108 127 -108 155 0 36 21 61 61 71 32 8 65 -19 152 -119 109 -128 147 -169 153 -163 3 3 -62 81 -144 173 -82 93 -154 179 -161 192 -23 44 13 102 63 102 39 -1 58 -16 143 -116 173 -204 226 -264 231 -259 6 6 4 9 -155 193 -113 129 -133 158 -133 186 0 51 57 94 103 77 13 -5 95 -90 183 -189 87 -99 160 -179 161 -178 1 0 -4 35 -9 76 -9 61 -9 84 3 120 13 42 17 45 52 48 50 4 77 -19 77 -64 0 -55 37 -136 90 -198 83 -99 110 -182 110 -341 0 -85 4 -108 25 -153 l25 -53 25 18 c13 10 25 21 25 26 1 26 52 -20 275 -248 l250 -255 75 56 c109 83 346 324 427 434 238 324 390 697 435 1073 16 130 21 423 9 482 -5 28 -14 88 -20 135 -11 86 -50 260 -71 314 l-11 29 -173 -171 c-95 -95 -176 -172 -180 -172 -4 0 -23 16 -42 36 l-34 37 -33 -44 c-19 -24 -72 -98 -119 -164 -47 -66 -112 -150 -144 -187 -77 -88 -362 -345 -390 -352 -53 -14 -103 35 -90 87 3 15 45 59 101 106 52 45 95 87 95 92 0 6 -20 -6 -44 -27 -263 -229 -269 -234 -298 -234 -35 0 -78 40 -78 72 0 26 39 66 190 198 52 46 97 88 99 94 5 14 2 11 -189 -156 -85 -74 -165 -140 -178 -147 -45 -24 -102 13 -102 66 0 40 1 41 190 203 185 159 197 169 183 170 -6 0 -35 -21 -65 -48 -115 -103 -254 -220 -275 -231 -53 -28 -117 10 -115 70 1 37 31 69 254 261 101 88 128 118 93 104 -38 -14 -142 -17 -180 -4 -36 12 -40 16 -43 51 -4 52 16 73 79 80 64 8 124 37 182 87 91 80 184 110 345 110 99 0 161 17 189 52 11 12 8 19 -12 38 -14 13 -25 28 -24 34 1 6 113 119 250 251 137 132 249 245 249 252 0 36 -259 320 -400 437 -322 268 -742 448 -1160 498 -127 15 -457 21 -465 8z"></path></g></g><g id="l5ZiQk4kC7tmk1zMLYdokh9" fill="rgb(50,73,93)" style="transform: none; --darkreader-inline-fill:#a6bdcf;" data-darkreader-inline-fill=""><g style="transform: none;"><path id="p144ko6xUY" d="M1490 4366 c-158 -56 -410 -185 -514 -261 -18 -13 -5 -29 202 -242 121 -125 234 -241 252 -258 l31 -30 225 227 c123 125 224 230 224 234 0 9 -342 354 -350 354 -3 -1 -34 -11 -70 -24z"></path></g></g></svg>